# xmcd
#
# Track frame offsets: 
#        150
#        20523
#        37671
#        62544
#        79692
#        102315
#        125613
#        141636
#        153684
#        175932
#        198780
#        232278
#
# Disc length: 3613 seconds
#
# Revision: 0
# Processed by: cddbd v1.5.2PL0 Copyright (c) Steve Scherf et al.
# Submitted via: ExactAudioCopyFreeDBPlugin 1.0
#
DISCID=a20e1b0c
DTITLE=Tony Spinner - Rare Tracks
DYEAR=2011
DGENRE=Blues
TTITLE0=Teaser
TTITLE1=Little Miss Lover
TTITLE2=Up From The Skies
TTITLE3=Steppin' Out
TTITLE4=Bell Bottom Blues
TTITLE5=The Younger I Get
TTITLE6=Give and Take
TTITLE7=Mr. Mouse
TTITLE8=Love Or Money
TTITLE9=Times R Tuff
TTITLE10=Daydream
TTITLE11=Bonus
EXTD=
EXTT0=
EXTT1=
EXTT2=
EXTT3=
EXTT4=
EXTT5=
EXTT6=
EXTT7=
EXTT8=
EXTT9=
EXTT10=
EXTT11=
PLAYORDER=
